<?xml version="1.0" encoding="UTF-8"?>
<svg xmlns="http://www.w3.org/2000/svg" width="1200" height="1165.581857" viewBox="0 0 132.5 128.699663">
  <!-- Generated from structured geometry; external and construction geometry are omitted. -->
  <rect width="100%" height="100%" fill="white"/>
  <g fill="none" stroke="#111827" stroke-width="1" stroke-linecap="round" stroke-linejoin="round">
    <polyline points="10,65.023457 40.5,10"/>
    <polyline points="40.5,10 59.636664,44.523457"/>
    <polyline points="59.636664,44.523457 101.5,44.523457"/>
    <polyline points="75.564227,85.523457 75.541541,84.26234 75.473512,83.002855 75.360229,81.746632 75.201839,80.495296 74.998545,79.250466 74.750611,78.013753 74.458358,76.786758 74.122164,75.571067"/>
    <polyline points="71,106.023457 71,65.023457"/>
    <polyline points="71,65.023457 10,65.023457"/>
    <polyline points="10,65.023457 10,106.023457"/>
    <polyline points="10,106.023457 71,106.023457"/>
    <polyline points="80.910658,113.926942 83.358388,103.202735"/>
    <polyline points="83.358388,103.202735 76.5,94.602589"/>
    <polyline points="76.5,94.602589 65.5,94.602589"/>
    <polyline points="65.5,94.602589 58.641612,103.202735"/>
    <polyline points="58.641612,103.202735 61.089342,113.926942"/>
    <polyline points="61.089342,113.926942 71,118.699663"/>
    <polyline points="71,118.699663 80.910658,113.926942"/>
    <polyline points="122.5,44.523457 122.455037,43.633878 122.320342,42.748108 122.096491,41.869941 121.784442,41.003137 121.385533,40.151407 120.90147,39.318399 120.334328,38.50768 119.686533,37.722721 118.960862,36.966884 118.16042,36.243406 117.288636,35.555384 116.349242,34.905765 115.346262,34.29733 114.28399,33.732684 113.166975,33.214247 112,32.744238 110.788062,32.324668 109.536352,31.957336 108.250229,31.643814 106.9352,31.385445 105.596897,31.183334 104.24105,31.038348 102.873466,30.951108 101.5,30.921986 100.126534,30.951108 98.75895,31.038348 97.403103,31.183334 96.0648,31.385445 94.749771,31.643814 93.463648,31.957336 92.211938,32.324668 91,32.744238 89.833025,33.214247 88.71601,33.732684 87.653738,34.29733 86.650758,34.905765 85.711364,35.555384 84.83958,36.243406 84.039138,36.966884 83.313467,37.722721 82.665672,38.50768 82.09853,39.318399 81.614467,40.151407 81.215558,41.003137 80.903509,41.869941 80.679658,42.748108 80.544963,43.633878 80.5,44.523457 80.544963,45.413035 80.679658,46.298805 80.903509,47.176972 81.215558,48.043776 81.614467,48.895506 82.09853,49.728514 82.665672,50.539233 83.313467,51.324192 84.039138,52.080029 84.83958,52.803507 85.711364,53.491529 86.650758,54.141149 87.653738,54.749584 88.71601,55.314229 89.833025,55.832666 91,56.302676 92.211938,56.722245 93.463648,57.089577 94.749771,57.403099 96.0648,57.661468 97.403103,57.863579 98.75895,58.008565 100.126534,58.095805 101.5,58.124927 102.873466,58.095805 104.24105,58.008565 105.596897,57.863579 106.9352,57.661468 108.250229,57.403099 109.536352,57.089577 110.788062,56.722245 112,56.302676 113.166975,55.832666 114.28399,55.314229 115.346262,54.749584 116.349242,54.141149 117.288636,53.491529 118.16042,52.803507 118.960862,52.080029 119.686533,51.324192 120.334328,50.539233 120.90147,49.728514 121.385533,48.895506 121.784442,48.043776 122.096491,47.176972 122.320342,46.298805 122.455037,45.413035 122.5,44.523457"/>
    <polyline points="74.122164,75.571067 71,65.023457"/>
    <polyline points="101.5,58.124927 98.802091,58.557321 96.156277,59.239486 93.58563,60.165473 91.112565,61.32721 88.758648,62.714565 86.544404,64.31544 84.48914,66.115877 82.61078,68.100176 80.925701,70.251033 79.448597,72.549695 78.192349,74.976116 77.16791,77.509139 76.384214,80.126676 75.848095,82.805903 75.564227,85.523457"/>
  </g>
  <g fill="#dc2626" stroke="none">
    <circle cx="101.5" cy="44.523457" r="2"/>
  </g>
</svg>
