<?xml version="1.0" encoding="UTF-8"?>
<svg xmlns="http://www.w3.org/2000/svg" width="1200" height="681.653665" viewBox="0 0 652.195286 370.476089">
  <!-- Generated from structured geometry; external and construction geometry are omitted. -->
  <rect width="100%" height="100%" fill="white"/>
  <g fill="none" stroke="#111827" stroke-width="1.006474" stroke-linecap="round" stroke-linejoin="round">
    <polyline points="252.745048,74.027215 252.61664,71.413425 252.232655,68.824806 251.59679,66.28629 250.715169,63.822323 249.596281,61.456635 248.250904,59.212009 246.691993,57.110061 244.934562,55.171034 242.995535,53.413603 240.893587,51.854692 238.648961,50.509315 236.283272,49.390427 233.819306,48.508806 231.28079,47.872941 228.692171,47.488956 226.078381,47.360548"/>
    <polyline points="226.078381,74.027215 252.745048,74.027215"/>
    <polyline points="199.411714,47.360548 252.745048,74.027215"/>
    <polyline points="211.078381,74.027215 226.078381,94.027215"/>
    <polyline points="252.745048,74.027215 226.078381,94.027215"/>
    <polyline points="211.078381,74.027215 199.411714,47.360548"/>
    <polyline points="226.078381,47.360548 199.411714,47.360548"/>
    <polyline points="270.065556,84.027215 270.065556,66.913966"/>
    <polyline points="267.565556,62.583839 252.745048,54.027215"/>
    <polyline points="252.745048,54.027215 235.42454,64.027215"/>
    <polyline points="235.42454,64.027215 235.42454,84.027215"/>
    <polyline points="235.42454,84.027215 250.245048,92.583839"/>
    <polyline points="255.245048,92.583839 270.065556,84.027215"/>
    <polyline points="270.065556,66.913966 270.042915,66.438686 269.975199,65.96771 269.863021,65.505304 269.707395,65.055654 269.509733,64.622834 269.271823,64.210762 268.995821,63.823171 268.684226,63.463571 268.339859,63.135218 267.96584,62.841087 267.565556,62.583839"/>
    <polyline points="250.245048,92.583839 255.245048,92.583839"/>
    <polyline points="296.078381,24.155381 296.078381,54.155381"/>
    <polyline points="296.078381,54.155381 316.078381,54.155381"/>
    <polyline points="316.078381,54.155381 316.078381,24.155381"/>
    <polyline points="316.078381,24.155381 296.078381,24.155381"/>
    <polyline points="316.078381,74.027215 315.762173,74.419589 315.444574,74.809418 315.1256,75.196644 314.805268,75.58121 314.483596,75.963059 314.160599,76.342134 313.836296,76.718377 313.510702,77.091731 313.183836,77.462138 312.855713,77.829543 312.52635,78.193887 312.195765,78.555113 311.863975,78.913164 311.530995,79.267984 311.196844,79.619513 310.861539,79.967696 310.525095,80.312475 310.18753,80.653793 309.848861,80.991593 309.509105,81.325818 309.168279,81.656409 308.826399,81.983311 308.483483,82.306465 308.139547,82.625815 307.794608,82.941303 307.448684,83.252873 307.101791,83.560466 306.753946,83.864026 306.405166,84.163496 306.055468,84.458818 305.704869,84.749935 305.353385,85.03679 305.001034,85.319325 304.647833,85.597484 304.293798,85.871209 303.938946,86.140443 303.583295,86.405129 303.22686,86.665209 302.86966,86.920627 302.511711,87.171324 302.15303,87.417245 301.793633,87.658331 301.433539,87.894525 301.072762,88.125771 300.711322,88.352011 300.349234,88.573187 299.986515,88.789243 299.623182,89.000121 299.259253,89.205765 298.894743,89.406116 298.529671,89.601118 298.164053,89.790713 297.797905,89.974844 297.431245,90.153455 297.06409,90.326487 296.696456,90.493884 296.328361,90.655588 295.959821,90.811542 295.590853,90.961689 295.221475,91.105972 294.851702,91.244333 294.481553,91.376715 294.111043,91.503062 293.74019,91.623315 293.369011,91.737418 292.997523,91.845313 292.625742,91.946943 292.253686,92.042251 291.881371,92.13118 291.508814,92.213672 291.136032,92.289671 290.763043,92.359118 290.389862,92.421957 290.016508,92.478131 289.642996,92.527582 289.269344,92.570254 288.895568,92.606088 288.521686,92.635028 288.147715,92.657017 287.773671,92.671996 287.399571,92.67991 287.025432,92.6807 286.651272,92.674311 286.277106,92.660683 285.902952,92.639761 285.528828,92.611486 285.154749,92.575803 284.780732,92.532652 284.406795,92.481979 284.032955,92.423724 283.659228,92.357831 283.285631,92.284242 282.912181,92.202901 282.538896,92.11375 282.165791,92.016732 281.792884,91.91179 281.420193,91.798866 281.047732,91.677904 280.675521,91.548845 280.303575,91.411634 279.931912,91.266212 279.560548,91.112523 279.1895,90.950508 278.818785,90.780112 278.448421,90.601276 278.078423,90.413944 277.70881,90.218058 277.339597,90.013562 276.970802,89.800397 276.602442,89.578507 276.234533,89.347834 275.867092,89.108321 275.500137,88.859912 275.133685,88.602548 274.767751,88.336172 274.402354,88.060728 274.037509,87.776159 273.673235,87.482406 273.309547,87.179412 272.946463,86.867121 272.584,86.545476 272.222174,86.214418 271.861003,85.873891 271.500503,85.523837 271.140692,85.1642 270.781585,84.794922 270.423201,84.415946 270.065556,84.027215"/>
    <polyline points="316.078381,54.155381 316.078381,74.027215"/>
    <polyline points="146.078377,109.027215 149.405339,108.868733 152.702172,108.39472 155.939018,107.609471 159.086565,106.520094 162.116308,105.136458 165.000809,103.471091 167.713945,101.539076 170.231147,99.357909 172.529617,96.947343 174.588541,94.329209 176.389272,91.527217 177.915503,88.566742 179.153412,85.474595 180.091788,82.278779 180.722134,79.008235 181.038741,75.692582 181.038741,72.361848 180.722134,69.046195 180.091788,65.775651 179.153412,62.579835 177.915503,59.487688 176.389272,56.527213 174.588541,53.725221 172.529617,51.107087 170.231147,48.696521 167.713945,46.515354 165.000809,44.583339 162.116308,42.917972 159.086565,41.534335 155.939018,40.444959 152.702172,39.659709 149.405339,39.185697 146.078377,39.027215"/>
    <polyline points="146.078381,89.027215 145.09821,89.075368 144.127478,89.219362 143.175534,89.457811 142.251547,89.788419 141.364413,90.208001 140.522678,90.712518 139.734448,91.297109 139.007313,91.956146 138.348276,92.683281 137.763684,93.471511 137.259167,94.313246 136.839584,95.200379 136.508976,96.124366 136.270527,97.07631 136.126532,98.047042 136.078379,99.027213 136.126532,100.007384 136.270526,100.978116 136.508975,101.93006 136.839583,102.854048 137.259166,103.741181 137.763682,104.582916 138.348273,105.371146 139.00731,106.098281 139.734445,106.757318 140.522675,107.34191 141.36441,107.846427 142.251543,108.26601 143.17553,108.596618 144.127474,108.835067 145.098206,108.979062 146.078377,109.027215"/>
    <polyline points="146.078377,39.027215 145.098206,39.075368 144.127474,39.219363 143.17553,39.457812 142.251543,39.78842 141.36441,40.208003 140.522675,40.71252 139.734445,41.297112 139.00731,41.956148 138.348273,42.683284 137.763682,43.471514 137.259166,44.313249 136.839583,45.200382 136.508975,46.12437 136.270526,47.076314 136.126532,48.047045 136.078379,49.027217 136.126532,50.007388 136.270527,50.97812 136.508976,51.930064 136.839584,52.854051 137.259167,53.741184 137.763684,54.582919 138.348276,55.371149 139.007313,56.098284 139.734448,56.757321 140.522678,57.341912 141.364413,57.846429 142.251547,58.266011 143.175534,58.596619 144.127478,58.835068 145.09821,58.979062 146.078381,59.027215"/>
    <polyline points="146.078381,89.027215 147.504222,88.959294 148.91715,88.756146 150.30437,88.41961 151.653319,87.952735 152.95178,87.359748 154.187995,86.646019 155.350767,85.818012 156.429568,84.883227 157.414627,83.850127 158.297022,82.72807 159.068764,81.527216 159.722863,80.258441 160.253396,78.933235 160.655557,77.563599 160.925705,76.161938 161.061394,74.740944 161.061394,73.313486 160.925705,71.892492 160.655557,70.490831 160.253396,69.121195 159.722863,67.795989 159.068764,66.527214 158.297022,65.32636 157.414627,64.204303 156.429568,63.171203 155.350767,62.236418 154.187995,61.408411 152.95178,60.694682 151.653319,60.101695 150.30437,59.63482 148.91715,59.298284 147.504222,59.095136 146.078381,59.027215"/>
    <polyline points="166.078379,119.027215 167.962886,119.280159 169.874908,119.468921 171.806399,119.592705 173.749232,119.650991 175.69523,119.643533 177.636207,119.570364 179.563993,119.43179 181.470478,119.228396 183.347638,118.961036 185.187576,118.630836 186.982548,118.239186 188.725002,117.787733 190.407605,117.278376 192.023278,116.713261 193.565221,116.094763 195.026947,115.425487 196.402305,114.708248 197.685506,113.946063 198.871153,113.142142 199.954254,112.299865 200.930254,111.422778 201.795045,110.514571 202.544987,109.579066 203.176926,108.6202 203.688203,107.642006 204.076665,106.648602 204.340678,105.644167 204.479132,104.632928 204.491443,103.619141 204.37756,102.60707 204.137962,101.600976 203.773658,100.60509 203.286179,99.623605 202.677579,98.66065 201.950416,97.720277 201.107752,96.806442 200.153132,95.922992 199.090573,95.073644 197.924546,94.261972 196.659958,93.491391 195.30213,92.765144 193.856776,92.086286 192.329977,91.457675 190.728159,90.881955 189.05806,90.361549 187.32671,89.898647 185.541393,89.495197 183.709623,89.152896 181.839106,88.873185 179.937713,88.65724 178.013447,88.505971 176.074403,88.420014 174.128741,88.39973 172.184649,88.445206 170.250306,88.556249 168.333853,88.732393 166.443353,88.972895 164.586762,89.276745 162.771892,89.642664 161.00638,90.069111 159.297655,90.554292 157.652906,91.096167 156.079056,91.692454 154.582727,92.340645 153.170214,93.038011 151.847462,93.781619 150.620037,94.56834 149.493104,95.394863 148.471404,96.25771 147.559238,97.15325 146.760442,98.077715 146.078379,99.027215"/>
    <polyline points="166.078379,119.027215 146.078379,99.027215"/>
    <polyline points="277.322006,172.665857 277.886751,172.743557 278.449801,172.789403 279.011445,172.804786 279.571972,172.791098 280.131672,172.749732 280.690835,172.68208 281.24975,172.589534 281.808707,172.473486 282.367996,172.335329 282.927905,172.176455 283.488725,171.998255 284.050745,171.802123 284.614255,171.589451 285.179544,171.36163 285.746902,171.120053 286.316618,170.866113 286.888982,170.6012 287.464285,170.326709 288.042814,170.04403 288.62486,169.754556 289.210712,169.459679 289.800661,169.160792 290.394995,168.859287 290.994004,168.556555 291.597978,168.25399 292.207206,167.952983 292.821978,167.654927 293.442583,167.361214 294.069312,167.073236 294.702453,166.792385 295.342296,166.520053 295.989131,166.257633 296.643248,166.006518 297.304935,165.768098 297.974483,165.543767 298.652181,165.334916 299.338319,165.142939 300.033186,164.969226 300.737072,164.815171 301.450266,164.682165 302.173058,164.571601 302.905738,164.484871 303.648591,164.423349 304.401612,164.387294 305.164353,164.375242 305.936324,164.385576 306.717037,164.416683 307.506005,164.466949 308.302738,164.534759 309.106748,164.618498 309.917548,164.716552 310.734647,164.827306 311.55756,164.949147 312.385795,165.080459 313.218867,165.219629 314.056285,165.365041 314.897562,165.515081 315.74221,165.668135 316.589739,165.822589 317.439662,165.976827 318.291491,166.129236 319.144736,166.278201 319.99891,166.422108 320.853524,166.559341 321.70809,166.688287 322.562119,166.807331 323.415123,166.914859 324.266614,167.009256 325.116104,167.088908 325.963103,167.1522 326.807124,167.197518 327.647678,167.223247 328.484277,167.227774 329.316433,167.209483 330.143657,167.166759 330.965461,167.09799 331.781356,167.001559 332.590854,166.875853 333.393467,166.719258 334.188706,166.530158 334.976084,166.306939 335.75511,166.047987 336.525299,165.751688 337.28616,165.416426 338.037205,165.040588 338.777922,164.622728 339.507507,164.163365 340.224968,163.664285 340.929313,163.127296 341.619547,162.554206 342.294677,161.946822 342.953708,161.306951 343.595648,160.636402 344.219502,159.936982 344.824276,159.210498 345.408976,158.458758 345.97261,157.683569 346.514182,156.88674 347.032699,156.070077 347.527168,155.235388 347.996594,154.384481 348.439984,153.519163 348.856344,152.641242 349.24468,151.752525 349.603998,150.854821 349.933304,149.949936 350.231605,149.039678 350.497907,148.125854 350.731216,147.210273 350.930539,146.294742 351.09488,145.381068 351.223247,144.471059 351.314646,143.566522 351.368083,142.669265 351.382564,141.781096 351.357096,140.903822 351.290684,140.039251 351.182334,139.18919 351.031054,138.355447 350.835849,137.539829 350.595725,136.744144 350.309688,135.970199 349.976745,135.219803 349.595902,134.494762 349.166165,133.796884 348.68654,133.127978 348.156034,132.489849 347.573652,131.884306 346.938852,131.312753 346.252892,130.774975 345.517483,130.270356 344.734333,129.798278 343.905153,129.358123 343.031652,128.949273 342.11554,128.571113 341.158527,128.223023 340.162322,127.904386 339.128635,127.614585 338.059176,127.353002 336.955654,127.11902 335.819779,126.912021 334.653261,126.731387 333.45781,126.576502 332.235135,126.446748 330.986946,126.341506 329.714952,126.260161 328.420863,126.202093 327.10639,126.166686 325.773241,126.153322 324.423127,126.161383 323.057756,126.190253 321.678839,126.239313 320.288086,126.307945 318.887206,126.395534 317.477908,126.50146 316.061903,126.625107 314.640901,126.765856 313.21661,126.923091 311.790741,127.096194 310.365003,127.284547 308.941105,127.487533 307.520759,127.704534 306.105673,127.934933 304.697557,128.178113 303.298121,128.433455 301.909074,128.700342 300.532126,128.978157 299.168987,129.266282 297.821366,129.5641 296.490974,129.870993 295.179511,130.186347 293.888174,130.509772 292.617377,130.841222 291.367467,131.180681 290.13879,131.528135 288.931694,131.883568 287.746525,132.246963 286.58363,132.618306 285.443355,132.997581 284.326048,133.384772 283.232055,133.779864 282.161723,134.182842 281.115399,134.593689 280.093429,135.01239 279.09616,135.43893 278.12394,135.873294 277.177114,136.315464 276.25603,136.765427 275.361034,137.223167 274.492473,137.688667 273.650694,138.161912 272.836044,138.642888 272.048869,139.131578 271.289517,139.627966 270.558333,140.132038 269.855665,140.643777 269.18186,141.163169 268.537264,141.690197 267.922224,142.224846 267.337086,142.7671 266.782199,143.316945 266.257907,143.874364 265.764559,144.439342 265.3025,145.011863 264.872079,145.591911 264.47364,146.179472 264.107532,146.77453 263.774101,147.377069 263.473693,147.987073 263.206657,148.604527 262.973337,149.229416 262.774081,149.861724 262.609236,150.501435 262.479089,151.148487 262.383232,151.802282 262.320808,152.461872 262.290954,153.126306 262.292805,153.79463 262.325498,154.465894 262.388169,155.139143 262.479954,155.813427 262.599989,156.487793 262.74741,157.161289 262.921354,157.832962 263.120957,158.50186 263.345354,159.167032 263.593682,159.827524 263.865077,160.482384 264.158675,161.13066 264.473612,161.771401 264.809024,162.403653 265.164048,163.026464 265.53782,163.638882 265.929475,164.239955 266.33815,164.828731 266.762982,165.404257 267.203105,165.965581 267.657657,166.511751 268.125773,167.041814 268.606589,167.554819 269.099242,168.049813 269.602868,168.525843 270.116603,168.981958 270.639583,169.417205 271.170944,169.830632 271.709822,170.221286 272.255354,170.588216 272.806675,170.930469 273.362922,171.247094 273.923231,171.537136 274.486738,171.799645 275.052579,172.033668 275.61989,172.238254 276.187807,172.412448 276.755467,172.5553 277.322006,172.665857"/>
    <polyline points="576.078381,74.027215 575.799184,68.701923 575.618833,63.770311 575.536598,59.212487 575.55215,55.010068 575.66555,51.146104 575.877257,47.605009 576.188123,44.372503 576.599403,41.435545 577.112755,38.782291 577.730251,36.40204 578.45438,34.285189 579.288064,32.423202 580.234665,30.808568 581.298,29.434775 582.48236,28.296282 583.79252,27.388496 585.233766,26.707757 586.81191,26.251318 588.533317,26.017339 590.404932,26.004875 592.434302,26.213878 594.629613,26.645189 596.999719,27.300548 599.55418,28.182598 602.3033,29.294898 605.258166,30.641933 608.430697,32.229138 611.833688,34.062912 615.480865,36.150653 619.38694,38.500782 623.567665,41.122778 628.039905,44.027215"/>
    <polyline points="24.155381,106.648229 25.129145,106.918279 26.062089,107.195333 26.954892,107.479249 27.808231,107.76988 28.622787,108.067083 29.399237,108.370711 30.138259,108.680621 30.840533,108.996667 31.506736,109.318706 32.137547,109.646591 32.733645,109.980179 33.295708,110.319323 33.824415,110.663881 34.320444,111.013707 34.784474,111.368655 35.217182,111.728582 35.619249,112.093342 35.991351,112.462791 36.334168,112.836784 36.648379,113.215176 36.934661,113.597822 37.193693,113.984577 37.426153,114.375298 37.632721,114.769838 37.814074,115.168053 37.970892,115.569799 38.103852,115.97493 38.213633,116.383302 38.300914,116.79477 38.366373,117.209189 38.410689,117.626415 38.434539,118.046302 38.438604,118.468706 38.42356,118.893481 38.390087,119.320484 38.338863,119.74957 38.270567,120.180593 38.185876,120.613408 38.085471,121.047872 37.970028,121.483839 37.840227,121.921165 37.696746,122.359704 37.540264,122.799311 37.371458,123.239843 37.191009,123.681155 36.999593,124.1231 36.79789,124.565535 36.586578,125.008316 36.366335,125.451296 36.137841,125.894331 35.901773,126.337278 35.65881,126.779989 35.409631,127.222322 35.154913,127.664131 34.895337,128.105271 34.631579,128.545598 34.364319,128.984966 34.094235,129.423231 33.822005,129.860249 33.548309,130.295874 33.273824,130.729961 32.999229,131.162366 32.725202,131.592945 32.452423,132.021551 32.181569,132.448041 31.913319,132.872269 31.648352,133.294092 31.387345,133.713363 31.130978,134.129938 30.87993,134.543673 30.634877,134.954423 30.3965,135.362042 30.165476,135.766387 29.942484,136.167312 29.728203,136.564672 29.52331,136.958323 29.328485,137.34812 29.144406,137.733918 28.971752,138.115572 28.811201,138.492938 28.663431,138.865871 28.52912,139.234225 28.408949,139.597857 28.303594,139.956621 28.213735,140.310372 28.14005,140.658967 28.083217,141.002259 28.043916,141.340104 28.022823,141.672358 28.020619,141.998876 28.037981,142.319512 28.075588,142.634122 28.134119,142.942562 28.214251,143.244686 28.316664,143.540349 28.442036,143.829408 28.591045,144.111716 28.76437,144.38713 28.96269,144.655504 29.186682,144.916694 29.437026,145.170555 29.7144,145.416941 30.019482,145.655709 30.352952,145.886714 30.715486,146.10981 31.107765,146.324854 31.530466,146.531699 31.984268,146.730202 32.469849,146.920217 32.987888,147.1016 33.539064,147.274206 34.124054,147.43789 34.743538,147.592507 35.398194,147.737913 36.0887,147.873963 36.815735,148.000512 37.579977,148.117415 38.382105,148.224527 39.222798,148.321705 40.102734,148.408801 41.02259,148.485673 41.983047,148.552175 42.984782,148.608163 44.028474,148.653491 45.114802,148.688015 46.244443,148.711591 47.418077,148.724072 48.636381,148.725315"/>
    <polyline points="100.561381,255.636215 103.093981,256.063239 105.562285,256.502904 107.966754,256.955022 110.307847,257.419405 112.586026,257.895867 114.801751,258.384221 116.955483,258.88428 119.047683,259.395856 121.07881,259.918763 123.049325,260.452814 124.95969,260.997821 126.810364,261.553599 128.601808,262.119959 130.334483,262.696714 132.008849,263.283678 133.625368,263.880664 135.184498,264.487485 136.686702,265.103953 138.132439,265.729881 139.522171,266.365084 140.856357,267.009372 142.135459,267.66256 143.359937,268.324461 144.530251,268.994888 145.646862,269.673652 146.710231,270.360568 147.720819,271.055449 148.679085,271.758107 149.58549,272.468356 150.440496,273.186008 151.244561,273.910876 151.998149,274.642774 152.701717,275.381514 153.355728,276.126909 153.960642,276.878773 154.51692,277.636918 155.025021,278.401157 155.485407,279.171304 155.898538,279.947171 156.264875,280.728571 156.584878,281.515317 156.859008,282.307223 157.087725,283.1041 157.27149,283.905763 157.410765,284.712024 157.506008,285.522697 157.557681,286.337593 157.566244,287.156527 157.532159,287.97931 157.455884,288.805757 157.337882,289.63568 157.178613,290.468892 156.978536,291.305205 156.738114,292.144434 156.457806,292.986391 156.138073,293.830889 155.779375,294.677741 155.382174,295.52676 154.946929,296.377759 154.474101,297.230551 153.964151,298.084948 153.41754,298.940765 152.834765,299.797802 152.216549,300.65579 151.563694,301.514435 150.877005,302.373443 150.157287,303.232519 149.405343,304.091369 148.621977,304.949698 147.807994,305.807212 146.964198,306.663616 146.091392,307.518616 145.19038,308.371917 144.261968,309.223226 143.306958,310.072247 142.326156,310.918686 141.320364,311.762249 140.290387,312.60264 139.23703,313.439567 138.161096,314.272734 137.06339,315.101846 135.944714,315.92661 134.805875,316.746731 133.647675,317.561914 132.470918,318.371865 131.27641,319.176289 130.064953,319.974893 128.837353,320.767381 127.594412,321.55346 126.336935,322.332834 125.065727,323.105209 123.781591,323.870291 122.485331,324.627785 121.177752,325.377397 119.859657,326.118833 118.531851,326.851797 117.195138,327.575996 115.850321,328.291135 114.498205,328.99692 113.139594,329.693055 111.775292,330.379248 110.406104,331.055202 109.032832,331.720624 107.656282,332.37522 106.277257,333.018694 104.896561,333.650753 103.514999,334.271102 102.133375,334.879446 100.752492,335.475491 99.373155,336.058943 97.996168,336.629507 96.622335,337.186888 95.25246,337.730793 93.887346,338.260926 92.5278,338.776994 91.174623,339.278701 89.828621,339.765754 88.490597,340.237857 87.161355,340.694718 85.8417,341.13604 84.532436,341.561529 83.234367,341.970892 81.948296,342.363833 80.675029,342.740059 79.415368,343.099274 78.170119,343.441185 76.940084,343.765496 75.726069,344.071913 74.528877,344.360143 73.349313,344.62989 72.18818,344.88086 71.046283,345.112758 69.924425,345.325291 68.823411,345.518163 67.744045,345.69108 66.687131,345.843748 65.653472,345.975872 64.643874,346.087158 63.65914,346.177311 62.700074,346.246037 61.767481,346.293042 60.862164,346.31803 59.984927,346.320708 59.136575,346.300781 58.317912,346.257955 57.529741,346.191934 56.772868,346.102426 56.048095,345.989134 55.356227,345.851766 54.698068,345.690025 54.074422,345.503619 53.486094,345.292252 52.933887,345.05563 52.418605,344.793458 51.941052,344.505442 51.502034,344.191288 51.102353,343.850701 50.742813,343.483387 50.424219,343.089051 50.147376,342.667398 49.913086,342.218135 49.722154,341.740967 49.575385,341.235599 49.473581,340.701737 49.416963,340.13927 49.404123,339.548594 49.433363,338.930198 49.502991,338.284568 49.61131,337.612191 49.756627,336.913555 49.937247,336.189147 50.151475,335.439454 50.397617,334.664962 50.673977,333.86616 50.978861,333.043533 51.310575,332.19757 51.667423,331.328757 52.047711,330.437582 52.449745,329.524531 52.871829,328.590091 53.312269,327.63475 53.769371,326.658995 54.241439,325.663313 54.726779,324.648191 55.223696,323.614115 55.730496,322.561574 56.245484,321.491055 56.766965,320.403043 57.293244,319.298027 57.822627,318.176494 58.353419,317.03893 58.883926,315.885823 59.412452,314.71766 59.937304,313.534927 60.456785,312.338113 60.969203,311.127704 61.472861,309.904187 61.966066,308.66805 62.447123,307.419778 62.914336,306.159861 63.366012,304.888784 63.800455,303.607035 64.215972,302.3151 64.610866,301.013468 64.983444,299.702624 65.332011,298.383057 65.654872,297.055253 65.950332,295.719699 66.216698,294.376882 66.452273,293.02729 66.65572,291.671508 66.828961,290.311016 66.975672,288.947776 67.099542,287.583755 67.204263,286.220921 67.293526,284.861238 67.371022,283.506675 67.440442,282.159197 67.505477,280.820772 67.569817,279.493366 67.637155,278.178946 67.711181,276.879478 67.795586,275.596929 67.894062,274.333266 68.010298,273.090455 68.147986,271.870464 68.310818,270.675258 68.502484,269.506804 68.726675,268.36707 68.987082,267.258021 69.287397,266.181624 69.63131,265.139847 70.022512,264.134655 70.464695,263.168016 70.961549,262.241895 71.516766,261.358261 72.134036,260.519078 72.81705,259.726315 73.5695,258.981937 74.395076,258.287911 75.29747,257.646205 76.280373,257.058784 77.347475,256.527615 78.502468,256.054666 79.749042,255.641902 81.090889,255.29129 82.5317,255.004797 84.075165,254.78439 85.724976,254.632035 87.484824,254.5497 89.3584,254.539349 91.349394,254.602951 93.461499,254.742472 95.698404,254.959878 98.063801,255.257137 100.561381,255.636215"/>
  </g>
  <g fill="#dc2626" stroke="none">
    <circle cx="252.745048" cy="74.027215" r="2.012948"/>
    <circle cx="199.411714" cy="47.360548" r="2.012948"/>
    <circle cx="226.078381" cy="60.693882" r="2.012948"/>
  </g>
</svg>
